
<svg width="479px" height="479px" viewBox="0 0 479 479" version="1.1" xmlns="http://www.w3.org/2000/svg" xmlns:xlink="http://www.w3.org/1999/xlink">
    <!-- Generator: Sketch 47.1 (45422) - http://www.bohemiancoding.com/sketch -->
    <desc>Created with Sketch.</desc>
    <defs>
        <path d="M446.25,56.1 L410.55,12.75 C405.45,5.1 395.25,0 382.5,0 L76.5,0 C63.75,0 53.55,5.1 45.9,12.75 L12.75,56.1 C5.1,66.3 0,76.5 0,89.25 L0,408 C0,436.05 22.95,459 51,459 L408,459 C436.05,459 459,436.05 459,408 L459,89.25 C459,76.5 453.9,66.3 446.25,56.1 Z M229.5,165 L369.75,305.25 L280.5,305.25 L280.5,356.25 L178.5,356.25 L178.5,305.25 L89.25,305.25 L229.5,165 Z M53.55,51 L73.95,25.5 L379.95,25.5 L402.9,51 L53.55,51 Z" id="path-1"></path>
        <filter x="-2.6%" y="-2.6%" width="105.2%" height="105.2%" filterUnits="objectBoundingBox" id="filter-2">
            <feGaussianBlur stdDeviation="1.5" in="SourceAlpha" result="shadowBlurInner1"></feGaussianBlur>
            <feOffset dx="0" dy="1" in="shadowBlurInner1" result="shadowOffsetInner1"></feOffset>
            <feComposite in="shadowOffsetInner1" in2="SourceAlpha" operator="arithmetic" k2="-1" k3="1" result="shadowInnerInner1"></feComposite>
            <feColorMatrix values="0 0 0 0 0   0 0 0 0 0   0 0 0 0 0  0 0 0 1 0" type="matrix" in="shadowInnerInner1"></feColorMatrix>
        </filter>
    </defs>
    <g id="Page-1" stroke="none" stroke-width="1" fill="none" fill-rule="evenodd">
        <g id="archive" transform="translate(10.000000, 10.000000)" fill-rule="nonzero">
            <g id="Shape">
                <use fill="#FFFFFF" fill-rule="evenodd" xlink:href="#path-1"></use>
                <use fill="black" fill-opacity="1" filter="url(#filter-2)" xlink:href="#path-1"></use>
                <use stroke="#000000" stroke-width="20" xlink:href="#path-1"></use>
            </g>
        </g>
    </g>
</svg>
